<svg xmlns="http://www.w3.org/2000/svg" viewBox="0 0 540.04 451.5"><defs><style>.cls-1{fill:#31ade4;}.cls-2{fill:#1d70b7;}.cls-3{fill:#f4c70b;}</style></defs><g id="Capa_2" data-name="Capa 2"><g id="Capa_1-2" data-name="Capa 1"><g id="Capa_2-2" data-name="Capa 2"><g id="Capa_1-2-2" data-name="Capa 1-2"><g id="Capa_2-2-2" data-name="Capa 2-2"><g id="Capa_6" data-name="Capa 6"><path class="cls-1" d="M461.58,132.14V401.48a5.14,5.14,0,0,0-.79,1.36c-6.66,31.13-28.19,48.64-60.16,48.64H61a72.55,72.55,0,0,1-12.92-.83C18.94,445.29.05,421.84,0,390.93V143.27C0,107.13,24.74,82.41,60.73,82.4H402.48c26.5,0,48.28,15.61,56.23,40C459.79,125.65,460.64,128.91,461.58,132.14ZM194.79,322.38l27.88-33.44q28.54-34.26,57.11-68.5c10.59-12.65,23.93-18.07,40.36-14.76,9.74,2,17.44,7.25,23.85,14.77q33.51,39.27,67.18,78.4c1.05,1.23,2.18,2.39,4.18,4.57V142.9c0-10.53-3.78-14.26-14.38-14.26H60.9c-10.85,0-14.63,3.8-14.63,14.62V357.58c2.3-2.18,3.73-3.47,5.08-4.82q27.93-27.9,55.83-55.81c19.71-19.69,43-19.73,62.74,0C178.17,305.21,186.26,313.65,194.79,322.38Z"/><path class="cls-1" d="M115.71,243.76A46.17,46.17,0,0,1,69.29,198.1C69,173,89.77,151.83,115,151.62a46.07,46.07,0,0,1,.74,92.14Z"/><ellipse class="cls-2" cx="437.58" cy="97.74" rx="102.47" ry="97.74"/><path class="cls-3" d="M440,16.29c3.14,1,6.54,1.67,9.35,3.23A20.13,20.13,0,0,1,460.41,37.7c.16,12.21,0,24.42,0,36.63v2.15h39.73c9.91,0,18.27,5.34,21.67,13.69,5.92,14.5-5,29.61-21.51,29.73H460.41v38.34a21.89,21.89,0,0,1-17.17,21.19c-14.59,3.44-28.26-6.88-28.35-21.4-.09-12,0-24,0-36v-2.15H375.12c-11.37,0-20.29-6.78-22.83-17.17-.16-.65-.33-1.32-.51-2V95.64a46.27,46.27,0,0,1,2-6.2C358,80.9,365.26,76.6,375.11,76.51c12.57-.1,25.14,0,37.71,0h2.07V74.4c0-12-.09-23.88,0-35.81.09-9.41,4.64-16.29,13.58-20.33a49.23,49.23,0,0,1,6.83-2Z"/></g></g></g></g></g></g></svg>