<?xml version="1.0" encoding="UTF-8" standalone="no"?>
<!-- Created with Inkscape (http://www.inkscape.org/) -->

<svg
   width="180"
   height="180"
   viewBox="0 0 180 180"
   version="1.1"
   id="svg5"
   inkscape:version="1.1.2 (b8e25be833, 2022-02-05)"
   sodipodi:docname="Icono_directorio_oscuro.svg"
   xmlns:inkscape="http://www.inkscape.org/namespaces/inkscape"
   xmlns:sodipodi="http://sodipodi.sourceforge.net/DTD/sodipodi-0.dtd"
   xmlns="http://www.w3.org/2000/svg"
   xmlns:svg="http://www.w3.org/2000/svg">
  <sodipodi:namedview
     id="namedview7"
     pagecolor="#ffffff"
     bordercolor="#666666"
     borderopacity="1.0"
     inkscape:pageshadow="2"
     inkscape:pageopacity="0.0"
     inkscape:pagecheckerboard="0"
     inkscape:document-units="px"
     showgrid="false"
     inkscape:snap-bbox="true"
     inkscape:bbox-nodes="true"
     inkscape:snap-bbox-edge-midpoints="false"
     inkscape:snap-nodes="true"
     inkscape:zoom="1.9126561"
     inkscape:cx="-21.697575"
     inkscape:cy="117.11462"
     inkscape:window-width="1366"
     inkscape:window-height="705"
     inkscape:window-x="-8"
     inkscape:window-y="-8"
     inkscape:window-maximized="1"
     inkscape:current-layer="layer1" />
  <defs
     id="defs2">
    <linearGradient
       id="linearGradient23028"
       inkscape:swatch="solid">
      <stop
         style="stop-color:#000000;stop-opacity:1;"
         offset="0"
         id="stop23026" />
    </linearGradient>
    <linearGradient
       id="linearGradient22874"
       inkscape:swatch="solid">
      <stop
         style="stop-color:#000000;stop-opacity:1;"
         offset="0"
         id="stop22872" />
    </linearGradient>
    <linearGradient
       id="linearGradient22616"
       inkscape:swatch="solid">
      <stop
         style="stop-color:#000000;stop-opacity:1;"
         offset="0"
         id="stop22614" />
    </linearGradient>
  </defs>
  <g
     inkscape:label="Capa 1"
     inkscape:groupmode="layer"
     id="layer1">
    <path
       id="rect3646"
       style="fill:#000000;fill-opacity:1;fill-rule:evenodd;stroke:none;stroke-width:2.52023;stroke-linecap:round;stroke-linejoin:round;stroke-miterlimit:1.4;stroke-dasharray:none;stroke-opacity:1"
       d="m 31.988322,1.3795214 c -2.837634,0 -5.122992,2.2825302 -5.122992,5.1201642 V 173.59522 c 0,2.83763 2.285358,5.12299 5.122992,5.12299 H 149.7747 c 2.83763,0 5.12016,-2.28536 5.12016,-5.12299 V 6.4996856 c 0,-2.837634 -2.28253,-5.1201642 -5.12016,-5.1201642 z M 66.779971,27.933649 h 64.811079 c 2.59495,0 4.68453,2.086739 4.68453,4.681695 v 1.233364 c 0,2.594959 -2.08958,4.684526 -4.68453,4.684526 H 66.779971 c -2.594958,0 -4.684525,-2.089567 -4.684525,-4.684526 v -1.233364 c 0,-2.594956 2.089567,-4.681695 4.684525,-4.681695 z m 6.919293,17.071923 h 50.299226 c 1.2425,0 2.24326,1.000766 2.24326,2.243255 v 0.591224 c 0,1.242486 -1.00076,2.243253 -2.24326,2.243253 H 73.699264 c -1.24249,0 -2.243257,-1.000767 -2.243257,-2.243253 v -0.591224 c 0,-1.242489 1.000767,-2.243255 2.243257,-2.243255 z m 16.746609,24.231667 c 2.264534,0.09655 4.020193,2.176071 5.33798,3.88114 1.588718,2.055608 3.24527,4.765738 2.186678,7.482227 -1.112464,2.854717 -3.313566,2.367041 -4.605318,3.428529 -1.749868,1.437956 -3.221468,2.334061 -3.190907,4.260202 0.02284,1.447711 2.676742,4.136389 8.302584,10.757991 5.72944,6.419362 8.05308,9.244842 9.44543,9.411502 1.85245,0.22159 3.00583,-1.43937 4.56571,-2.98159 1.15147,-1.13846 0.75983,-2.9754 3.62089,-3.76233 2.72254,-0.74869 5.1682,1.11878 6.99001,2.85428 1.72701,1.64533 3.86683,3.89065 3.02118,6.48649 -1.20005,3.68378 -4.44264,7.48622 -7.85847,8.91926 -3.60875,1.51376 -5.60427,1.71965 -11.00692,-0.38189 -5.40271,-2.10156 -15.600942,-14.26008 -15.600942,-14.26008 0,0 -11.40354,-11.766313 -12.98711,-17.538677 -1.583572,-5.772348 -1.157839,-7.803929 0.780757,-11.349222 1.834959,-3.35578 6.085967,-6.279598 9.997045,-7.120139 0.3445,-0.07404 0.677896,-0.101485 1.001403,-0.08769 z" />
    <path
       id="rect24138-8"
       style="fill:#ffffff;fill-opacity:1;fill-rule:evenodd;stroke:#000000;stroke-width:3.33121;stroke-linecap:round;stroke-linejoin:round;stroke-miterlimit:1.4;stroke-dasharray:none;stroke-opacity:1"
       d="m 156.82101,18.636285 h 6.08779 c 0.57054,0 1.02984,0.274992 1.02984,0.616573 v 20.11402 c 0,0.341581 -0.4593,0.616573 -1.02984,0.616573 h -6.79182 -1.22125 c 0,0 0.0145,-0.345116 3.2e-4,-0.707932 V 19.788778 l -3.2e-4,-1.152493 c 0,0 0.96654,0 1.92528,0 z"
       sodipodi:nodetypes="csssscccccc" />
    <path
       id="rect24138-8-4"
       style="fill:#fdf6fd;fill-opacity:1;fill-rule:evenodd;stroke:#000000;stroke-width:3.33121;stroke-linecap:round;stroke-linejoin:round;stroke-miterlimit:1.4;stroke-dasharray:none;stroke-opacity:1"
       d="m 156.82101,43.314669 h 6.08779 c 0.57054,0 1.02984,0.274992 1.02984,0.616574 v 20.114021 c 0,0.341581 -0.4593,0.616573 -1.02984,0.616573 h -6.79182 -1.22125 c 0,0 0.0145,-0.345116 3.2e-4,-0.707932 V 44.467164 l -3.2e-4,-1.152495 c 0,0 0.96654,0 1.92528,0 z"
       sodipodi:nodetypes="csssscccccc" />
    <path
       id="rect24138-8-4-4"
       style="fill:#ffffff;fill-opacity:1;fill-rule:evenodd;stroke:#000000;stroke-width:3.33121;stroke-linecap:round;stroke-linejoin:round;stroke-miterlimit:1.4;stroke-dasharray:none;stroke-opacity:1"
       d="m 156.82101,67.993055 h 6.08779 c 0.57054,0 1.02984,0.274992 1.02984,0.616574 v 20.11402 c 0,0.341582 -0.4593,0.616574 -1.02984,0.616574 h -6.79182 -1.22125 c 0,0 0.0145,-0.345117 3.2e-4,-0.707933 V 69.14555 l -3.2e-4,-1.152495 c 0,0 0.96654,0 1.92528,0 z"
       sodipodi:nodetypes="csssscccccc" />
    <rect
       style="fill:#5f5f5f;fill-opacity:1;fill-rule:evenodd;stroke:none;stroke-width:2.53059;stroke-opacity:1"
       id="rect23144"
       width="127.54967"
       height="14.639869"
       x="27.221914"
       y="162.99767"
       ry="4.6738825" />
    <path
       id="rect24138-9"
       style="fill:#161616;fill-opacity:1;fill-rule:evenodd;stroke-width:1.02808;stroke-linecap:round;stroke-linejoin:round;stroke-miterlimit:1.4"
       d="m 29.477313,1.3788654 c -1.446295,0 -2.610911,2.1214744 -2.610911,4.7588415 V 160.73527 c 0.03455,2.80131 0,5.46565 0,5.46565 h 0.239649 c 0.191407,-2.23587 1.256577,-3.94226 2.563611,-3.94226 h 20.075317 c 0.02529,-0.26693 0.04414,-0.53892 0.04414,-0.81942 V 6.1377069 c 0,-2.6373671 -1.164617,-4.7588415 -2.610911,-4.7588415 z" />
  </g>
</svg>
