<?xml version="1.0" encoding="UTF-8" standalone="no"?>
<!-- Created with Inkscape (http://www.inkscape.org/) -->

<svg
   width="180"
   height="180"
   viewBox="0 0 180 180"
   version="1.1"
   id="svg5"
   sodipodi:docname="Icono_directorio_clarov2.svg"
   inkscape:version="1.1.2 (b8e25be833, 2022-02-05)"
   xmlns:inkscape="http://www.inkscape.org/namespaces/inkscape"
   xmlns:sodipodi="http://sodipodi.sourceforge.net/DTD/sodipodi-0.dtd"
   xmlns="http://www.w3.org/2000/svg"
   xmlns:svg="http://www.w3.org/2000/svg">
  <sodipodi:namedview
     id="namedview7"
     pagecolor="#ffffff"
     bordercolor="#666666"
     borderopacity="1.0"
     inkscape:pageshadow="2"
     inkscape:pageopacity="0.0"
     inkscape:pagecheckerboard="0"
     inkscape:document-units="px"
     showgrid="false"
     inkscape:snap-bbox="true"
     inkscape:bbox-nodes="true"
     inkscape:snap-bbox-edge-midpoints="false"
     inkscape:snap-nodes="true"
     inkscape:zoom="2.3077737"
     inkscape:cx="112.01272"
     inkscape:cy="50.048235"
     inkscape:window-width="1350"
     inkscape:window-height="728"
     inkscape:window-x="0"
     inkscape:window-y="0"
     inkscape:window-maximized="0"
     inkscape:current-layer="layer1"
     showguides="false" />
  <defs
     id="defs2">
    <linearGradient
       id="linearGradient23028"
       inkscape:swatch="solid">
      <stop
         style="stop-color:#000000;stop-opacity:1;"
         offset="0"
         id="stop23026" />
    </linearGradient>
    <linearGradient
       id="linearGradient22874"
       inkscape:swatch="solid">
      <stop
         style="stop-color:#000000;stop-opacity:1;"
         offset="0"
         id="stop22872" />
    </linearGradient>
    <linearGradient
       id="linearGradient22616"
       inkscape:swatch="solid">
      <stop
         style="stop-color:#000000;stop-opacity:1;"
         offset="0"
         id="stop22614" />
    </linearGradient>
  </defs>
  <g
     inkscape:label="Capa 1"
     inkscape:groupmode="layer"
     id="layer1">
    <path
       id="rect3646"
       style="fill:#ececec;fill-opacity:1;fill-rule:evenodd;stroke:none;stroke-width:1.74007;stroke-linecap:round;stroke-linejoin:round;stroke-miterlimit:1.4;stroke-dasharray:none;stroke-opacity:1"
       d="m 23.032681,21.341892 c -1.959208,0.0023 -3.535261,1.580089 -3.532965,3.539299 l 0.135178,115.369059 c 0.0023,1.95921 1.582045,3.53526 3.541251,3.53296 l 81.324165,-0.0953 c 1.95921,-0.002 3.5333,-1.58204 3.53101,-3.54125 L 107.89614,24.777615 c -0.002,-1.959211 -1.58008,-3.533308 -3.5393,-3.531012 z m 24.042951,18.305826 44.748016,-0.05243 c 1.791657,-0.0021 3.236061,1.436974 3.238159,3.228631 l 9.96e-4,0.851561 c 0.0021,1.791656 -1.438927,3.236063 -3.230583,3.238162 l -44.748016,0.05243 c -1.791657,0.0021 -3.236064,-1.438926 -3.238163,-3.230583 l -9.96e-4,-0.85156 c -0.0021,-1.791657 1.438928,-3.234111 3.230587,-3.236211 z m 4.791151,11.781502 34.728491,-0.04069 c 0.857862,-0.001 1.549638,0.689151 1.550642,1.547011 l 4.73e-4,0.408203 c 0.001,0.857861 -0.689151,1.549637 -1.547011,1.550643 l -34.728492,0.04069 c -0.857861,10e-4 -1.549637,-0.689153 -1.550643,-1.547012 l -4.74e-4,-0.408203 c -10e-4,-0.857861 0.689152,-1.549637 1.547013,-1.550643 z m 11.582095,16.716911 c 1.5636,0.06482 2.777455,1.499188 3.688684,2.675366 1.098573,1.417985 2.244512,3.287821 1.515818,5.164244 -0.765778,1.971903 -2.285898,1.636975 -3.176912,2.370912 -1.207015,0.994232 -2.222333,1.61413 -2.199677,2.943985 0.01695,0.999536 1.238667,3.006953 5.128317,7.574214 3.961018,4.427524 6.180438,6.223262 7.141899,6.337199 1.279177,0.151496 2.074171,-0.996218 3.14993,-2.062285 0.794091,-0.786975 0.52221,-2.054946 2.496954,-2.600584 1.879142,-0.519126 3.569229,0.768265 4.828477,1.965046 1.193721,1.134594 2.672944,2.683114 2.091184,4.476069 -0.825579,2.544396 -3.06131,5.172363 -5.418562,6.164543 -2.490401,1.04808 -3.820035,1.87208 -7.551932,0.42547 -3.731933,-1.44664 -11.666272,-10.005225 -11.666272,-10.005225 0,0 -7.047677,-8.62276 -8.145702,-12.606934 -1.098029,-3.984166 -0.80573,-5.387191 0.529881,-7.836563 1.264212,-2.318443 4.196902,-4.340596 6.896579,-4.9241 0.237795,-0.05139 0.467963,-0.07062 0.691334,-0.06136 z"
       sodipodi:nodetypes="ccscsccscscssccsssscsscssscssssccccccscscssssss" />
    <path
       style="fill:#fadede;fill-opacity:1;stroke:none;stroke-width:2.97765;stroke-miterlimit:4;stroke-dasharray:none;stroke-opacity:1"
       d="m 181.49888,82.580796 c 5.89571,0.05886 8.40039,0.169329 9.12168,-0.361325 l -3e-5,-2.4e-5 c 0.95959,-0.706056 0.63782,-1.848806 0.56311,-3.11952 -0.0552,-0.938019 -1.17166,-1.488894 -0.26617,-3.021016 0.86172,-1.457895 2.93177,-1.773362 4.65036,-1.874201 1.62923,-0.09554 3.75385,-0.134024 4.69292,1.243122 1.33263,1.95432 1.79372,4.829186 0.96467,6.85142 -0.876,2.136366 -1.68399,3.07175 -5.22567,4.561791 -3.54174,1.49005 -14.40952,1.09937 -14.40952,1.09937 0,0 -11.21824,0.27646 -14.88923,-1.30351 -3.67099,-1.579974 -4.514,-2.55527 -5.43846,-4.77147 -0.87504,-2.09773 -0.42551,-5.060941 0.93238,-7.063374 0.95686,-1.41104 3.15112,-1.346435 4.83427,-1.228782 1.77553,0.124107 3.91594,0.474112 4.8193,1.989573 0.94933,1.592578 -0.30593,2.344193 -0.35416,3.312139 -0.0653,1.311234 -0.27956,2.291672 0.7179,3.031934 0.74965,0.556443 3.335,0.471572 9.28665,0.653873"
       id="path4093-2-8"
       sodipodi:nodetypes="cssssassscsssasssc" />
    <path
       style="fill:#ececec;fill-opacity:1;stroke:none;stroke-width:2.33723;stroke-miterlimit:4;stroke-dasharray:none;stroke-opacity:1"
       d="m 60.976951,87.757088 c 0,0 -4.162472,-4.497228 -4.690265,-7.316057 -0.527787,-2.81883 -0.230337,-3.854786 0.879665,-5.718435 1.050666,-1.764025 3.273054,-3.421876 5.236539,-4.020654 1.383596,-0.421932 2.300453,0.704706 2.9572,1.612125 0.692799,0.957226 1.390987,2.238319 0.750735,3.646884 -0.672832,1.480243 -1.736367,1.336109 -2.419132,1.926443 -0.924906,0.799705 -1.992037,1.735354 -2.061182,2.698591"
       id="path4093-2-8-3"
       sodipodi:nodetypes="csssassc" />
    <path
       d="m 71.679428,93.586223 c 2.755159,3.126999 4.199519,3.110571 4.935086,3.1319 l 5e-6,-3.1e-5 c 0.978642,0.02832 1.672555,-0.907679 2.578556,-1.80024 0.668789,-0.658879 0.546918,-1.613541 2.111908,-2.168358 1.48922,-0.527883 2.705628,0.344288 3.596177,1.176556 0.844202,0.78903 1.881301,1.875806 1.306762,3.292492 -0.815328,2.010436 -2.726421,4.182718 -4.61825,5.106728 -1.998681,0.97607 -3.075266,1.18117 -5.860517,0.32719 -2.785284,-0.85399 -7.654908,-6.807625 -7.654908,-6.807625"
       style="fill:#ececec;fill-opacity:1;stroke:none;stroke-width:2.50339;stroke-miterlimit:4;stroke-dasharray:none;stroke-opacity:1"
       id="path40820"
       sodipodi:nodetypes="cccsccscsc" />
    <path
       id="rect24138"
       style="fill:#d625c3;fill-rule:evenodd;stroke-width:0.943125;stroke-linecap:round;stroke-linejoin:round;stroke-miterlimit:1.4"
       d="m 171.02409,53.086799 h 21.92826 c 1.79166,0 3.23404,1.442382 3.23404,3.23404 V 161.82246 c 0,1.79166 -1.44238,3.23404 -3.23404,3.23404 h -21.32827 -3.83502 c 0,0 0.0438,-1.8102 9.9e-4,-3.71323 V 56.320839 c 0,-1.791658 1.44238,-3.23404 3.23404,-3.23404 z"
       sodipodi:nodetypes="ssssscccss" />
    <path
       id="rect24138-8"
       style="fill:#d1d1d1;fill-opacity:1;fill-rule:evenodd;stroke:#d1d1d1;stroke-width:1.4;stroke-linecap:round;stroke-linejoin:round;stroke-miterlimit:1.4;stroke-dasharray:none;stroke-opacity:1"
       d="m 109.23681,33.155145 4.20324,-0.0049 c 0.39392,-4.64e-4 0.71127,0.189033 0.71155,0.424873 l 0.0163,13.887481 c 2.4e-4,0.235838 -0.31664,0.426076 -0.71055,0.426538 l -4.68933,0.0055 -0.84319,9.85e-4 c 0,0 0.01,-0.238296 -3.6e-4,-0.488783 l -0.0158,-13.454383 -0.001,-0.795725 c 0,0 0.66733,-7.8e-4 1.32928,-0.0016 z"
       sodipodi:nodetypes="csssscccccc" />
    <path
       id="rect24138-8-4"
       style="fill:#d1d1d1;fill-opacity:1;fill-rule:evenodd;stroke:#d1d1d1;stroke-width:1.2;stroke-linecap:round;stroke-linejoin:round;stroke-miterlimit:1.4;stroke-dasharray:none;stroke-opacity:1"
       d="m 109.25912,52.194033 4.20324,-0.0049 c 0.39391,-4.63e-4 0.71127,0.189032 0.71155,0.424872 l 0.0163,13.887479 c 2.4e-4,0.23584 -0.31664,0.426078 -0.71055,0.42654 l -4.68933,0.0055 -0.84319,9.85e-4 c 0,0 0.01,-0.238295 -3.6e-4,-0.488784 l -0.0158,-13.454382 -0.001,-0.795723 c 0,0 0.66733,-7.81e-4 1.32928,-0.0016 z"
       sodipodi:nodetypes="csssscccccc" />
    <path
       id="rect24138-8-4-4"
       style="fill:#d1d1d1;fill-opacity:1;fill-rule:evenodd;stroke:#d1d1d1;stroke-width:1.4;stroke-linecap:round;stroke-linejoin:round;stroke-miterlimit:1.4;stroke-dasharray:none;stroke-opacity:1"
       d="m 109.28143,71.232921 4.20324,-0.0049 c 0.39391,-4.63e-4 0.71127,0.189033 0.71154,0.424872 l 0.0163,13.887481 c 2.4e-4,0.23584 -0.31664,0.426074 -0.71055,0.426539 l -4.68933,0.0055 -0.84319,9.85e-4 c 0,0 0.01,-0.238295 -3.6e-4,-0.488785 l -0.0158,-13.454381 -0.001,-0.795723 c 0,0 0.66733,-7.8e-4 1.32928,-0.0016 z"
       sodipodi:nodetypes="csssscccccc" />
    <path
       style="fill:none;fill-opacity:1;stroke:none;stroke-width:3.23987;stroke-miterlimit:4;stroke-dasharray:none;stroke-opacity:1"
       d="m 75.271277,95.236328 c 1.247566,0.153299 2.02203,-1.007716 3.071152,-2.085967 0.774432,-0.795972 0.509512,-2.07821 2.435421,-2.630027 1.832674,-0.525003 3.479758,0.777079 4.707935,1.987651 1.164265,1.147663 2.608081,2.713562 2.040779,4.527068 -0.805067,2.573558 -2.984707,5.232527 -5.283652,6.236027 -2.4288,1.06 -3.774011,1.20511 -7.413728,-0.25827 -3.639748,-1.46341 -10.51712,-9.945799 -10.51712,-9.945799 0,0 -7.686887,-8.209154 -8.757942,-12.239101 -1.071057,-4.029939 -0.787444,-5.448025 0.515049,-7.925452 1.232864,-2.344997 4.093462,-4.390609 6.726385,-4.980695 1.855326,-0.41581 3.256237,1.285338 4.271962,2.645015 1.071478,1.434304 2.189871,3.324542 1.479268,5.22247 -0.746768,1.994502 -2.230026,1.655628 -3.098987,2.397948 -1.177133,1.005598 -2.167101,1.633207 -2.144948,2.978328 0.01648,1.011009 1.806375,2.885867 5.600075,7.505709 3.863296,4.478511 5.430648,6.449854 6.36835,6.565148 z"
       id="path4093-2-8-4"
       sodipodi:nodetypes="sssassscsssassscs" />
    <rect
       style="fill:#c1c1c1;fill-opacity:1;fill-rule:evenodd;stroke:none;stroke-width:1.74722;stroke-opacity:1"
       id="rect23144"
       width="88.065178"
       height="10.107925"
       x="19.717716"
       y="132.95573"
       ry="3.2270277"
       transform="rotate(-0.06713392)" />
    <path
       id="rect24138-9"
       style="fill:#d1d1d1;fill-opacity:1;fill-rule:evenodd;stroke-width:0.709827;stroke-linecap:round;stroke-linejoin:round;stroke-miterlimit:1.4"
       d="m 21.299954,21.342992 c -0.998577,0.0012 -1.800956,1.466858 -1.798822,3.287795 l 0.12507,106.739993 c 0.02612,1.9341 0.0044,3.77369 0.0044,3.77369 l 0.165447,10e-5 c 0.130347,-1.54388 0.864401,-2.72289 1.766823,-2.72395 l 13.860753,-0.0162 c 0.01725,-0.18433 0.03005,-0.37214 0.02985,-0.5658 L 35.327845,24.612243 c -0.0021,-1.820937 -0.807945,-3.284742 -1.806521,-3.283572 z" />
    <path
       style="fill:#ececec;fill-opacity:1;stroke:none;stroke-width:0.757101px;stroke-linecap:butt;stroke-linejoin:miter;stroke-opacity:1"
       d="m 71.142024,98.070928 c -2.8061,-1.154838 -7.367755,-6.851368 -7.367755,-6.851368 0,0 -5.393121,-6.240408 -6.43647,-8.930207 l 4.292712,-1.703368 c 0.02248,0.202216 -0.339926,0.203759 0.08395,0.918413 0.96166,1.621369 2.832147,4.935519 4.992015,7.173272 3.15529,3.135628 6.676429,6.787159 6.676429,6.787159"
       id="path42997"
       sodipodi:nodetypes="ccccscc" />
  </g>
</svg>
