<svg xmlns="http://www.w3.org/2000/svg" viewBox="0 0 62.71 50.94"><defs><style>.cls-1{fill:#000000;}</style></defs><g id="Capa_2" data-name="Capa 2"><g id="Capa_1-2" data-name="Capa 1"><path class="cls-1" d="M0,25a16.61,16.61,0,0,1,1.17-1.46Q12.48,12.2,23.82.88A3.08,3.08,0,0,1,25.25,0a1.9,1.9,0,0,1,2.17,2.1c0,3.19,0,6.37,0,9.56a5,5,0,0,0,0,.67,1.38,1.38,0,0,0,1.25,1.22,5.23,5.23,0,0,0,.79,0H60.11c.23,0,.45,0,.67,0a1.92,1.92,0,0,1,1.92,2q0,9.83,0,19.65c0,1.29-.83,2-2.23,2H29.12a1.51,1.51,0,0,0-1.69,1.7c0,3.19,0,6.37,0,9.55a3.48,3.48,0,0,1-.11,1,1.89,1.89,0,0,1-2.91,1,4.36,4.36,0,0,1-.68-.61Q12.46,38.73,1.21,27.46A17.62,17.62,0,0,1,0,26Z"/></g></g></svg>