<svg xmlns="http://www.w3.org/2000/svg" viewBox="0 0 63.01 69.62"><defs><style>.cls-1{fill:#f7f7f7;}</style></defs><g id="Capa_2" data-name="Capa 2"><g id="Capa_1-2" data-name="Capa 1"><path class="cls-1" d="M42.33,32.69c-12.07,3-19.23,14.86-14.9,27.67H0c.32-9.28.73-18.42,6.1-26.43a21.86,21.86,0,0,1,10.18-8.08c-4.21-3.47-6.4-7.68-5.94-13a13.7,13.7,0,0,1,4.94-9.52A14.16,14.16,0,0,1,34.82,4.54c5.63,6.11,4.89,14.31-2.12,21.28A20.79,20.79,0,0,1,42.33,32.69Z"/><path class="cls-1" d="M46.29,69.61C37.08,69.38,29.67,61.79,30,52.9A16.51,16.51,0,1,1,46.29,69.61ZM43.74,55.84v4.43h6.31V55.68h4.18V49.59H49.92v-4.3H43.59v4.25l-4.46.29v6Z"/></g></g></svg>