<?xml version="1.0" encoding="UTF-8" standalone="no"?>
<!-- Created with Inkscape (http://www.inkscape.org/) -->

<svg
   width="120"
   height="120"
   viewBox="0 0 120 120"
   version="1.1"
   id="svg5"
   inkscape:version="1.1.2 (b8e25be833, 2022-02-05)"
   sodipodi:docname="usuario_comentario.svg"
   xmlns:inkscape="http://www.inkscape.org/namespaces/inkscape"
   xmlns:sodipodi="http://sodipodi.sourceforge.net/DTD/sodipodi-0.dtd"
   xmlns="http://www.w3.org/2000/svg"
   xmlns:svg="http://www.w3.org/2000/svg">
  <sodipodi:namedview
     id="namedview7"
     pagecolor="#ffffff"
     bordercolor="#666666"
     borderopacity="1.0"
     inkscape:pageshadow="2"
     inkscape:pageopacity="0.0"
     inkscape:pagecheckerboard="0"
     inkscape:document-units="px"
     showgrid="false"
     inkscape:zoom="2.1625"
     inkscape:cx="40"
     inkscape:cy="90.404624"
     inkscape:window-width="1350"
     inkscape:window-height="728"
     inkscape:window-x="0"
     inkscape:window-y="0"
     inkscape:window-maximized="0"
     inkscape:current-layer="layer1" />
  <defs
     id="defs2" />
  <g
     inkscape:label="Capa 1"
     inkscape:groupmode="layer"
     id="layer1">
    <g
       id="g6559"
       transform="matrix(0.20739147,0,0,0.20739147,-33.031315,28.892851)">
      <ellipse
         style="fill:#000000;fill-rule:evenodd;stroke-width:0.725509"
         id="path43"
         cx="306.27591"
         cy="195.68437"
         ry="72.550911"
         rx="72.559624" />
      <path
         style="fill:#000000;stroke:#000000;stroke-width:1.12729px;stroke-linecap:butt;stroke-linejoin:miter;stroke-opacity:1"
         d="m 319.48758,246.84019 c 23.0484,7.8216 62.55299,13.60904 89.5645,60.62209 27.01151,47.01306 24.16819,125.95567 24.16819,125.95567 l -251.15401,-0.003 c 0,0 -2.84344,-78.93343 24.16927,-125.94091 27.01271,-47.00747 65.92719,-53.31172 89.14568,-60.61489 14.63661,-4.60381 12.84989,-3.69543 12.84989,-3.69543 3.78178,0.92593 7.54084,2.41555 11.25648,3.67647 z"
         id="path1333-5"
         sodipodi:nodetypes="csccsscc" />
    </g>
    <path
       id="rect45"
       style="fill:#000000;fill-rule:evenodd"
       d="m 31.283203,1.15625 c -1.793295,0 -3.236328,1.4430333 -3.236328,3.2363281 V 49.480469 c 0,1.793295 1.443033,3.236328 3.236328,3.236328 h 80.462887 c 1.7933,0 3.23633,-1.443033 3.23633,-3.236328 V 4.3925781 c 0,-1.7932948 -1.44303,-3.2363281 -3.23633,-3.2363281 z m 19.191406,18.265625 a 6.4739885,6.4739885 0 0 1 6.472657,6.474609 6.4739885,6.4739885 0 0 1 -6.472657,6.472657 A 6.4739885,6.4739885 0 0 1 44,25.896484 6.4739885,6.4739885 0 0 1 50.474609,19.421875 Z m 20.808594,0 a 6.4739885,6.4739885 0 0 1 6.474609,6.474609 6.4739885,6.4739885 0 0 1 -6.474609,6.472657 6.4739885,6.4739885 0 0 1 -6.474609,-6.472657 6.4739885,6.4739885 0 0 1 6.474609,-6.474609 z m 20.347656,0 a 6.4739885,6.4739885 0 0 1 6.472657,6.474609 6.4739885,6.4739885 0 0 1 -6.472657,6.472657 6.4739885,6.4739885 0 0 1 -6.474609,-6.472657 6.4739885,6.4739885 0 0 1 6.474609,-6.474609 z" />
    <path
       id="path784"
       inkscape:transform-center-x="1.6118283"
       inkscape:transform-center-y="-1.3124279"
       d="M 44.23121,60.346823 37.526017,48.323695 57.582322,47.358976 Z"
       sodipodi:nodetypes="cccc" />
  </g>
</svg>
